<svg width="28" height="28" viewBox="0 0 28 28" fill="none" xmlns="http://www.w3.org/2000/svg">
<path d="M12.5938 14C12.5938 14.373 12.742 14.7306 13.0057 14.9944C13.2694 15.2581 13.6271 15.4062 14 15.4062C14.373 15.4062 14.7307 15.2581 14.9944 14.9944C15.2581 14.7306 15.4063 14.373 15.4063 14C15.4063 13.627 15.2581 13.2694 14.9944 13.0056C14.7307 12.7419 14.373 12.5938 14 12.5938C13.6271 12.5938 13.2694 12.7419 13.0057 13.0056C12.742 13.2694 12.5938 13.627 12.5938 14ZM18.4532 14C18.4532 14.373 18.6013 14.7306 18.8651 14.9944C19.1288 15.2581 19.4865 15.4062 19.8594 15.4062C20.2324 15.4062 20.5901 15.2581 20.8538 14.9944C21.1175 14.7306 21.2657 14.373 21.2657 14C21.2657 13.627 21.1175 13.2694 20.8538 13.0056C20.5901 12.7419 20.2324 12.5938 19.8594 12.5938C19.4865 12.5938 19.1288 12.7419 18.8651 13.0056C18.6013 13.2694 18.4532 13.627 18.4532 14ZM6.73442 14C6.73442 14.373 6.88258 14.7306 7.1463 14.9944C7.41002 15.2581 7.76771 15.4062 8.14067 15.4062C8.51363 15.4062 8.87132 15.2581 9.13504 14.9944C9.39876 14.7306 9.54692 14.373 9.54692 14C9.54692 13.627 9.39876 13.2694 9.13504 13.0056C8.87132 12.7419 8.51363 12.5938 8.14067 12.5938C7.76771 12.5938 7.41002 12.7419 7.1463 13.0056C6.88258 13.2694 6.73442 13.627 6.73442 14ZM26.1055 8.91406C25.4434 7.34082 24.4942 5.92871 23.2842 4.71582C22.0827 3.50995 20.6564 2.55143 19.086 1.89453C17.4747 1.21777 15.7637 0.875 14 0.875H13.9415C12.1661 0.883789 10.4463 1.23535 8.82915 1.92676C7.27219 2.59039 5.85922 3.55062 4.66899 4.75391C3.47075 5.96387 2.53032 7.37012 1.87993 8.9375C1.2061 10.5605 0.866255 12.2861 0.875044 14.0615C0.884985 16.0961 1.36633 18.1007 2.28129 19.918V24.3711C2.28129 24.7285 2.42328 25.0713 2.67601 25.324C2.92875 25.5768 3.27153 25.7188 3.62895 25.7188H8.08501C9.90227 26.6337 11.9069 27.1151 13.9415 27.125H14.003C15.7579 27.125 17.46 26.7852 19.0625 26.1201C20.625 25.471 22.046 24.5237 23.2461 23.3311C24.4561 22.1328 25.4082 20.7324 26.0733 19.1709C26.7647 17.5537 27.1163 15.834 27.125 14.0586C27.1338 12.2744 26.7881 10.543 26.1055 8.91406ZM21.6788 21.7461C19.625 23.7793 16.9004 24.8984 14 24.8984H13.9502C12.1836 24.8896 10.4288 24.4502 8.87895 23.624L8.63286 23.4922H4.50786V19.3672L4.37602 19.1211C3.54985 17.5713 3.1104 15.8164 3.10161 14.0498C3.08989 11.1289 4.2061 8.38672 6.25395 6.32129C8.29887 4.25586 11.0323 3.11328 13.9532 3.10156H14.003C15.4678 3.10156 16.8887 3.38574 18.2276 3.94824C19.5342 4.49609 20.7061 5.28418 21.7139 6.29199C22.7188 7.29688 23.5098 8.47168 24.0577 9.77832C24.626 11.1318 24.9102 12.5674 24.9043 14.0498C24.8868 16.9678 23.7413 19.7012 21.6788 21.7461Z" fill="#9B9B9B"/>
</svg>
